<?xml version="1.0" standalone="no"?>
<!DOCTYPE svg PUBLIC "-//W3C//DTD SVG 20010904//EN"
 "http://www.w3.org/TR/2001/REC-SVG-20010904/DTD/svg10.dtd">
<svg version="1.0" xmlns="http://www.w3.org/2000/svg"
 width="3840.000000pt" height="2160.000000pt" viewBox="0 0 3840.000000 2160.000000"
 preserveAspectRatio="xMidYMid meet">

<g transform="translate(0.000000,2160.000000) scale(0.100000,-0.100000)"
fill="#000000" stroke="none">
<path d="M19935 21032 c-2 -2 -30 -5 -62 -7 -176 -11 -378 -27 -383 -30 -4 -2
-71 -7 -150 -10 -78 -3 -165 -10 -193 -16 -27 -5 -69 -9 -92 -9 -24 0 -87 -9
-140 -20 -53 -11 -118 -20 -144 -20 -25 0 -62 -5 -81 -10 -19 -6 -73 -15 -120
-21 -46 -5 -107 -16 -135 -24 -27 -8 -76 -17 -107 -20 -31 -2 -90 -14 -130
-25 -40 -11 -91 -20 -114 -20 -22 0 -54 -5 -70 -10 -16 -6 -63 -17 -104 -25
-146 -27 -462 -112 -720 -192 -161 -49 -145 -44 -360 -120 -85 -30 -276 -97
-425 -148 -258 -89 -492 -178 -601 -230 -27 -13 -88 -40 -135 -61 -121 -52
-548 -263 -654 -321 -50 -28 -108 -60 -130 -73 -22 -12 -65 -36 -95 -52 -83
-47 -194 -114 -300 -184 -315 -205 -362 -239 -564 -404 -71 -58 -143 -116
-160 -130 -196 -155 -574 -527 -762 -750 -323 -384 -580 -767 -690 -1030 -53
-128 -135 -347 -156 -420 -24 -80 -67 -321 -68 -374 0 -46 36 -172 52 -182 7
-4 42 -9 78 -10 36 -1 90 -9 120 -17 30 -9 75 -21 100 -27 114 -30 382 -193
560 -341 243 -201 573 -530 795 -789 49 -58 117 -134 150 -170 72 -75 400
-515 640 -855 145 -205 552 -814 624 -932 61 -102 84 -148 156 -313 88 -204
91 -210 76 -219 -7 -5 -23 -6 -35 -4 -33 7 -37 -6 -20 -63 37 -122 78 -204
141 -276 34 -40 69 -82 78 -93 14 -20 73 -197 100 -300 7 -27 33 -129 58 -225
42 -161 77 -330 77 -373 0 -10 -8 -20 -17 -23 -10 -4 -65 -26 -123 -49 -58
-24 -132 -51 -165 -61 -493 -145 -946 -366 -1452 -709 -106 -72 -185 -135
-278 -225 -72 -69 -164 -153 -206 -188 -77 -65 -300 -302 -341 -362 -68 -100
-172 -339 -194 -445 -23 -110 -36 -271 -29 -375 10 -140 63 -291 166 -470 76
-132 311 -385 494 -532 92 -74 343 -247 395 -271 19 -10 74 -46 123 -82 150
-111 199 -142 297 -185 190 -84 477 -181 575 -196 22 -3 65 -12 95 -20 30 -8
100 -17 155 -20 55 -3 114 -10 130 -14 17 -5 62 -14 102 -20 58 -9 79 -18 112
-46 45 -39 56 -38 64 6 4 16 11 30 17 30 6 0 37 -13 69 -30 77 -38 104 -75
101 -138 -2 -26 -2 -53 -1 -60 2 -21 285 -312 388 -400 200 -168 333 -273 429
-337 53 -36 101 -65 105 -65 4 0 88 -39 186 -86 223 -108 406 -192 458 -210
65 -22 182 -44 238 -45 29 -1 63 -4 77 -8 19 -6 35 -1 67 21 71 48 74 62 67
265 -10 260 19 396 97 456 59 45 241 54 519 28 63 -7 122 -14 131 -17 10 -2
32 -7 50 -9 19 -2 57 -7 84 -10 28 -4 95 -18 150 -31 159 -40 581 -214 736
-304 92 -54 136 -69 243 -80 189 -19 322 24 576 188 352 228 949 788 1470
1381 74 84 93 108 281 338 145 179 452 591 587 787 73 108 99 131 162 145 151
34 731 350 1125 614 136 92 520 381 656 496 104 87 379 348 443 420 32 36 77
86 100 111 77 84 162 185 230 273 71 92 103 112 91 56 -4 -18 -20 -53 -35 -78
-72 -121 -135 -221 -169 -266 -77 -104 -83 -125 -32 -99 43 22 286 239 342
306 127 153 283 404 393 633 16 33 46 89 66 125 107 186 184 367 274 645 36
112 91 314 107 393 5 24 11 47 13 51 6 8 32 162 47 271 17 122 19 182 7 197
-7 9 -9 47 -3 126 4 61 7 182 8 267 0 180 -31 368 -90 555 -19 60 -38 121 -43
135 -27 86 -133 311 -176 375 -35 51 -15 76 154 189 184 124 405 229 567 269
125 31 331 30 422 -2 75 -25 73 -25 73 -3 0 38 -39 80 -103 112 -93 45 -212
55 -527 40 -353 -15 -497 -46 -751 -161 -48 -22 -93 -37 -100 -34 -8 3 -24 20
-36 38 -36 52 -202 213 -278 268 -181 132 -353 207 -597 263 -78 18 15 104
217 201 134 64 144 71 236 163 182 185 261 337 294 572 10 63 26 141 37 173
15 45 17 62 9 70 -15 15 -29 -3 -111 -134 -126 -203 -348 -415 -553 -528 -95
-52 -207 -84 -400 -116 -173 -28 -344 -77 -453 -130 l-71 -34 -297 -1 c-230 0
-333 -5 -454 -20 -86 -10 -184 -21 -217 -24 -33 -2 -73 -9 -88 -15 -15 -6 -58
-13 -95 -15 -37 -2 -107 -14 -156 -26 -49 -12 -98 -19 -109 -16 -11 2 -29 -1
-41 -9 -29 -19 -130 -36 -241 -40 -80 -3 -96 -1 -109 14 -26 29 -19 33 246
116 80 25 151 52 157 59 19 22 -54 25 -134 5 -38 -9 -92 -20 -120 -24 -67 -8
-176 -33 -250 -55 -33 -10 -76 -21 -95 -24 -50 -8 -377 -117 -485 -162 -96
-39 -191 -53 -237 -36 -51 20 -133 167 -188 337 -17 55 -38 117 -46 138 -8 21
-30 102 -49 180 -20 78 -40 160 -46 182 -15 61 -47 256 -65 389 -8 66 -17 123
-20 128 -3 4 -15 149 -26 321 -23 343 -30 689 -18 867 4 63 11 185 14 270 8
198 25 470 31 479 2 4 9 65 15 137 6 71 17 162 25 203 8 40 15 93 15 116 0 24
7 79 15 122 8 43 20 119 26 168 6 50 17 112 25 139 8 27 14 66 14 85 0 20 8
74 19 121 11 47 28 123 36 170 9 47 25 123 35 170 11 47 22 103 26 125 3 22
10 54 15 70 4 17 20 84 35 150 14 66 32 140 39 165 7 25 23 90 35 145 12 55
31 127 42 161 19 57 19 62 4 92 -42 81 -101 125 -206 155 -61 17 -255 52 -340
62 -30 3 -81 10 -112 16 -31 5 -162 9 -290 9 -128 0 -363 1 -521 2 -159 2
-290 1 -292 0z m5899 -5011 c8 -13 -29 -152 -53 -198 -38 -75 -101 -161 -163
-225 -66 -66 -152 -118 -275 -164 -139 -53 -274 -144 -387 -264 -101 -108
-154 -200 -170 -295 -4 -22 -30 -86 -58 -143 -41 -82 -64 -114 -112 -160 -90
-83 -140 -106 -286 -131 l-126 -22 -48 21 c-66 30 -76 23 -76 -51 l0 -61 -61
-63 c-63 -66 -70 -91 -29 -102 26 -7 26 -23 1 -23 -11 0 -23 -5 -26 -11 -9
-13 -107 -2 -155 18 -71 29 -120 101 -120 175 0 51 39 176 79 256 16 31 53 89
83 127 66 84 85 119 98 183 13 58 44 112 65 112 18 0 19 -22 3 -68 -11 -30
-11 -35 6 -48 25 -18 31 -12 56 43 29 66 242 280 346 348 95 62 149 84 434
180 463 157 624 246 845 472 96 98 117 113 129 94z m945 -1307 c13 -11 -17
-37 -85 -74 -102 -56 -303 -192 -433 -293 -117 -91 -425 -393 -513 -502 -118
-147 -251 -376 -311 -535 -13 -36 -45 -105 -69 -155 -44 -86 -104 -240 -183
-465 -20 -58 -54 -187 -76 -287 -22 -100 -49 -210 -59 -244 -25 -77 -141 -300
-185 -354 -66 -81 -235 -239 -319 -297 -100 -69 -323 -175 -387 -183 -24 -4
-76 -14 -116 -22 -68 -15 -77 -15 -155 2 -146 32 -220 82 -285 188 -20 34 -41
65 -47 69 -20 13 -271 -4 -391 -28 -210 -40 -341 -91 -566 -220 -80 -46 -179
-112 -220 -147 -63 -54 -82 -78 -118 -150 -40 -78 -43 -89 -37 -136 l7 -50
-67 -68 c-36 -37 -79 -86 -94 -108 -101 -147 -150 -339 -115 -447 31 -95 106
-229 139 -249 44 -26 206 -61 295 -63 l76 -1 -1 -35 c-1 -42 -55 -152 -125
-256 -99 -147 -311 -348 -446 -423 -43 -24 -123 -74 -178 -111 -55 -37 -131
-83 -170 -102 -120 -60 -318 -131 -439 -158 -31 -7 -61 -22 -80 -41 -17 -16
-63 -53 -103 -82 -196 -141 -281 -234 -348 -379 -43 -94 -53 -163 -31 -210 20
-42 37 -52 141 -79 168 -44 261 -48 385 -14 30 8 87 17 125 20 115 10 205 35
292 81 120 64 135 58 89 -35 -28 -54 -217 -304 -279 -369 -80 -82 -269 -187
-359 -200 l-41 -5 6 51 c5 40 3 52 -8 52 -15 0 -99 -64 -130 -100 -65 -73
-281 -181 -445 -221 -99 -25 -182 -24 -261 2 -86 28 -108 41 -150 86 -54 57
-69 88 -69 136 0 68 -8 71 -167 62 -75 -3 -148 -11 -162 -17 -14 -6 -93 -14
-176 -19 -198 -11 -319 -41 -419 -103 -96 -60 -213 -183 -262 -276 -37 -70
-66 -102 -79 -88 -3 3 -2 43 3 88 8 80 8 83 -16 105 -33 30 -41 79 -42 232 0
119 4 146 35 269 54 210 109 325 243 510 70 97 83 121 134 244 60 145 62 152
61 230 -1 105 -31 161 -114 214 -36 22 -63 11 -140 -60 -33 -31 -65 -52 -69
-47 -12 12 6 164 26 226 41 129 148 315 244 427 61 72 75 95 106 171 63 156
106 324 118 454 24 268 173 679 338 933 98 150 282 372 308 372 17 0 12 -15
-26 -82 -102 -178 -150 -295 -170 -418 -20 -115 -19 -137 2 -265 45 -268 201
-491 375 -535 42 -11 56 -9 150 20 133 41 213 85 301 168 175 165 283 436 333
832 20 160 51 378 72 499 19 114 13 211 -17 278 -72 160 -6 403 201 739 93
150 188 267 301 373 121 113 179 154 334 244 427 244 783 507 1043 770 182
184 225 250 340 521 12 27 24 46 28 42 11 -11 4 -98 -12 -146 -9 -25 -28 -92
-44 -150 -16 -58 -40 -134 -54 -170 -31 -79 -121 -247 -150 -278 -23 -24 -163
-122 -237 -164 -215 -124 -431 -453 -526 -803 -22 -79 -33 -163 -60 -465 -8
-87 27 -297 63 -381 38 -91 167 -304 221 -368 33 -38 64 -63 110 -84 58 -27
70 -29 130 -23 93 9 190 58 265 134 l59 59 -29 54 c-25 48 -28 64 -27 144 0
144 46 309 134 481 85 168 240 350 350 411 34 18 67 47 85 73 59 85 192 180
252 180 33 0 29 -16 -18 -69 -64 -73 -64 -74 -101 -123 -20 -26 -44 -68 -54
-95 -9 -26 -27 -71 -40 -99 -70 -159 -95 -274 -89 -418 5 -110 33 -175 98
-223 70 -52 205 -67 397 -42 98 12 157 35 209 82 20 18 88 67 151 109 128 85
314 246 444 384 46 50 116 117 155 148 94 77 232 243 422 506 119 165 154 227
193 344 81 240 196 427 369 600 155 154 237 214 412 300 188 93 442 188 530
199 28 3 86 -2 94 -9z m-10045 -7594 c50 -11 114 -27 141 -35 60 -17 206 -100
293 -165 55 -41 150 -150 180 -206 20 -38 53 -148 59 -197 l6 -50 -46 7 c-52
8 -49 12 -62 -84 -11 -83 -43 -94 -178 -64 -133 31 -355 153 -507 280 -86 73
-156 150 -234 259 -134 186 -203 233 -266 180 -43 -36 -105 -20 -98 25 2 21
11 26 58 35 30 6 64 16 75 23 14 8 95 11 254 12 198 0 247 -3 325 -20z"/>
<path d="M26958 4280 c-37 -28 -51 -80 -44 -154 14 -142 18 -235 12 -252 -5
-14 -17 -5 -63 45 -137 152 -354 285 -496 305 -26 4 -63 14 -81 21 -27 11 -82
14 -257 11 -123 -2 -253 -9 -289 -15 -67 -10 -128 -16 -290 -27 -97 -7 -145
-18 -137 -31 3 -5 8 -48 12 -97 3 -48 10 -99 15 -112 5 -13 16 -63 25 -111 13
-79 64 -259 94 -337 26 -66 68 -245 60 -257 -6 -11 -16 -10 -46 5 -120 57
-160 66 -299 66 -143 0 -191 -9 -379 -72 -170 -57 -197 -83 -215 -204 -5 -38
-16 -100 -25 -139 -21 -102 -19 -137 10 -169 13 -14 34 -26 47 -26 13 0 62 22
109 49 198 110 359 147 448 101 100 -50 123 -153 43 -194 -15 -8 -76 -30 -137
-51 -60 -20 -179 -64 -264 -98 -137 -55 -160 -68 -211 -117 -75 -72 -99 -133
-104 -269 -4 -131 8 -201 49 -280 41 -78 176 -219 238 -250 96 -47 286 -91
391 -91 69 0 103 7 226 46 159 51 212 74 311 140 81 53 96 55 103 12 24 -145
26 -154 51 -175 25 -22 33 -23 243 -24 249 -1 248 -2 284 13 38 14 42 37 24
121 -30 139 -79 416 -91 511 -4 27 -10 58 -15 70 -37 94 -61 192 -58 243 3 47
7 59 30 76 56 42 139 -6 223 -130 22 -32 57 -80 77 -108 21 -27 38 -53 38 -58
0 -4 11 -24 24 -45 13 -20 63 -111 110 -202 46 -91 106 -194 133 -230 78 -106
189 -215 261 -258 110 -65 170 -81 309 -85 145 -4 182 6 184 50 3 47 0 76 -10
118 -6 22 -12 62 -15 88 -7 63 -59 135 -136 187 -97 66 -234 239 -337 425 -24
44 -52 89 -62 100 -40 44 -105 151 -115 189 -17 59 -10 83 33 111 54 33 93 84
126 163 27 64 28 76 33 265 4 163 2 205 -11 240 -33 88 -37 116 -19 126 17 8
236 23 379 25 85 1 124 -20 135 -75 9 -44 35 -210 43 -272 4 -27 24 -119 46
-205 27 -111 39 -179 39 -232 0 -41 11 -136 24 -210 25 -139 32 -172 73 -325
13 -49 31 -117 39 -150 9 -33 22 -82 30 -110 8 -27 19 -81 24 -118 6 -38 13
-73 16 -79 3 -5 14 -59 24 -121 49 -291 62 -331 118 -356 28 -13 765 -14 831
-2 25 5 51 17 58 27 22 30 18 242 -7 344 -11 47 -29 135 -41 195 -11 61 -29
146 -40 190 -10 45 -19 96 -19 115 0 19 -6 73 -14 120 -8 47 -24 155 -36 240
-11 85 -28 189 -37 230 -9 41 -20 111 -24 155 -4 44 -13 116 -22 160 -21 111
-29 282 -16 331 9 32 39 79 89 137 16 19 93 27 248 27 l162 1 34 30 c43 37 49
81 25 169 -33 122 -59 285 -59 366 0 93 -5 101 -85 132 -90 35 -306 42 -1480
49 -697 4 -701 4 -727 -17z m-694 -750 c107 -35 210 -265 149 -332 -43 -48
-104 -58 -214 -38 -65 12 -101 37 -111 76 -35 146 -59 267 -55 279 4 9 25 15
63 17 32 2 75 4 97 6 21 2 53 -2 71 -8z m-1002 -1243 c59 -115 70 -204 28
-242 -71 -64 -259 -55 -322 15 -75 82 5 185 195 249 64 22 79 19 99 -22z"/>
<path d="M11430 4099 c-159 -12 -259 -51 -303 -119 -19 -30 -53 -155 -62 -225
-3 -28 -12 -81 -20 -120 -8 -38 -15 -134 -17 -212 -2 -90 -7 -146 -15 -154
-19 -19 -33 22 -38 113 -2 46 -7 95 -10 109 -3 14 -12 95 -19 180 -14 173 -30
223 -73 240 -35 14 -450 5 -508 -10 -22 -6 -83 -14 -135 -17 -52 -3 -128 -12
-170 -20 -41 -8 -133 -17 -205 -20 -71 -3 -161 -11 -200 -19 -38 -7 -108 -17
-155 -21 -108 -9 -186 -36 -204 -72 -11 -23 -11 -41 1 -112 7 -47 17 -128 22
-180 14 -141 30 -287 40 -355 10 -68 53 -170 77 -179 26 -10 216 -6 264 5 25
6 64 8 87 4 35 -5 43 -11 52 -37 6 -17 11 -46 11 -65 0 -19 7 -66 15 -106 15
-76 24 -156 50 -432 9 -93 22 -210 30 -260 20 -118 42 -316 55 -490 6 -77 15
-156 19 -175 5 -19 12 -81 15 -137 12 -184 51 -343 84 -343 9 -1 114 -1 232 0
252 0 267 4 302 82 12 27 28 48 35 48 8 0 23 -15 34 -34 29 -50 61 -59 181
-53 164 8 260 25 286 50 30 28 62 133 69 231 3 44 14 100 24 125 l17 46 73 6
c41 3 133 12 206 19 119 11 137 10 185 -5 29 -10 58 -22 65 -27 15 -12 68
-175 83 -258 7 -36 18 -77 26 -92 14 -27 16 -28 102 -27 104 1 313 15 360 25
21 4 43 2 57 -6 29 -16 520 -8 576 9 70 21 69 14 59 321 -5 151 -12 319 -15
373 -5 97 -5 98 17 95 29 -4 51 -44 99 -180 130 -367 203 -528 259 -566 35
-24 37 -24 190 -17 85 5 218 9 295 11 77 1 154 6 170 11 26 8 30 14 29 44 -1
19 -9 64 -19 101 -19 73 -15 112 15 128 30 16 270 39 430 41 89 1 156 7 175
15 16 6 80 17 140 23 61 6 126 15 145 20 19 5 71 12 115 16 44 3 105 13 135
20 30 8 80 17 111 21 30 3 84 21 120 38 74 37 68 6 50 256 -6 85 -18 207 -26
270 -7 63 -14 144 -14 180 -1 36 -5 81 -11 100 -5 19 -14 98 -20 175 -6 77
-17 187 -25 245 -8 58 -17 150 -20 205 -4 55 -11 134 -16 175 -5 41 -12 113
-16 160 -3 47 -10 93 -15 103 -14 28 -44 20 -67 -18 -24 -40 -52 -46 -75 -13
-14 20 -22 21 -138 19 -68 -1 -152 -6 -188 -11 -36 -5 -135 -14 -220 -20 -85
-5 -186 -14 -225 -20 -120 -16 -177 -21 -290 -24 -60 -2 -130 -8 -155 -14 -25
-6 -83 -13 -130 -17 -67 -5 -90 -11 -107 -27 -13 -12 -23 -26 -23 -32 0 -6
-27 -102 -60 -213 -32 -111 -60 -219 -61 -240 -2 -51 10 -145 27 -213 8 -30
14 -76 14 -103 0 -26 4 -56 10 -67 5 -10 17 -64 26 -121 14 -87 26 -121 70
-209 35 -69 55 -124 60 -160 4 -30 13 -72 20 -94 24 -66 16 -126 -13 -108 -9
6 -156 278 -183 337 -5 11 -40 89 -79 172 -79 173 -121 288 -122 336 -2 57 20
158 60 287 22 69 52 172 67 230 24 92 77 247 161 470 40 105 133 394 133 410
-1 21 -31 55 -71 79 -31 19 -49 21 -227 21 -256 0 -268 -5 -315 -135 -23 -65
-58 -148 -127 -305 -41 -94 -105 -262 -137 -360 -23 -68 -32 -86 -49 -88 -13
-2 -24 4 -29 15 -10 25 -23 255 -31 543 -7 272 -11 286 -74 317 -35 17 -143
19 -450 8 -52 -2 -109 -4 -127 -4 -18 -1 -44 -12 -62 -27 l-31 -26 1 -141 c0
-78 4 -167 9 -197 11 -73 27 -210 34 -285 4 -33 11 -78 16 -100 5 -22 10 -86
10 -141 0 -56 9 -153 20 -216 11 -63 24 -191 30 -284 6 -93 12 -182 15 -199 3
-16 7 -66 10 -110 2 -44 14 -147 25 -230 17 -129 61 -525 60 -547 0 -5 -8 -8
-18 -8 -23 0 -57 85 -101 255 -18 66 -42 156 -56 200 -13 44 -51 175 -85 290
-34 116 -66 221 -71 235 -15 43 -39 151 -59 270 -11 63 -28 156 -38 205 -18
84 -30 135 -99 445 -14 63 -47 196 -73 295 -27 99 -53 203 -60 231 -14 63 -56
115 -113 142 -52 24 -95 29 -197 21z m-455 -1076 c-11 -27 -32 -135 -49 -258
-35 -250 -57 -395 -71 -475 -9 -47 -20 -120 -25 -163 -5 -43 -12 -82 -15 -87
-3 -5 -12 -53 -20 -107 -8 -54 -21 -134 -30 -178 -8 -44 -22 -114 -30 -155 -8
-41 -19 -114 -25 -162 -9 -86 -25 -131 -45 -125 -5 2 -13 50 -17 108 -4 57
-11 122 -17 144 -5 22 -15 107 -21 189 -5 83 -15 178 -20 211 -5 34 -14 135
-20 226 -5 90 -14 186 -19 214 -6 27 -15 161 -21 297 -14 302 -18 290 103 308
85 13 230 26 306 29 37 1 42 -1 36 -16z m492 -525 c5 -7 28 -71 51 -143 22
-71 46 -144 53 -162 17 -42 6 -54 -87 -98 -106 -51 -108 -50 -101 38 4 39 11
97 17 127 6 30 11 93 11 140 0 46 5 90 11 97 13 16 33 17 45 1z"/>
<path d="M23457 4024 c-3 -3 -113 -14 -244 -24 -369 -29 -432 -39 -633 -97
-66 -20 -97 -19 -122 4 -16 15 -28 15 -121 4 -56 -7 -121 -14 -144 -17 -23 -3
-46 -11 -53 -19 -6 -8 -10 -42 -8 -82 1 -37 -3 -133 -11 -213 -8 -98 -11 -280
-9 -563 l3 -418 48 -46 48 -46 -5 -161 c-25 -709 -14 -895 51 -921 10 -3 167
-11 348 -16 182 -5 385 -16 452 -24 129 -16 558 -21 580 -7 19 12 33 60 33
117 0 62 13 72 65 51 27 -11 98 -15 312 -17 266 -2 280 -1 319 19 55 28 74 81
80 222 6 125 -4 153 -54 158 -26 3 -39 -3 -60 -26 -42 -45 -67 -54 -172 -59
-96 -6 -98 -5 -106 18 -11 34 -5 479 7 502 18 32 60 18 83 -28 33 -63 98 -82
140 -39 13 12 16 41 16 142 0 70 5 147 11 172 12 51 15 185 5 218 -8 24 -53
52 -84 52 -41 0 -69 -36 -75 -96 -7 -65 -28 -94 -68 -94 -50 0 -59 27 -59 185
0 116 3 149 20 193 11 29 20 67 20 85 0 17 4 37 8 43 24 37 119 48 183 21 19
-8 59 -36 88 -61 83 -74 84 -72 125 158 20 111 13 129 -64 162 -54 23 -62 23
-383 24 -271 0 -334 -3 -364 -15 -20 -8 -38 -13 -40 -11 -2 2 -8 47 -13 101
-5 53 -12 100 -15 104 -2 5 -12 66 -20 136 -16 126 -34 192 -58 207 -14 9 -51
10 -60 2z"/>
<path d="M18020 3979 c-25 -4 -169 -10 -320 -14 l-274 -8 -38 -36 c-28 -27
-49 -66 -87 -162 -28 -69 -61 -145 -74 -170 -14 -24 -30 -62 -37 -84 -7 -22
-36 -80 -65 -130 -29 -49 -55 -100 -59 -112 -11 -34 -46 -73 -66 -73 -11 0
-28 16 -41 38 -12 20 -34 51 -49 67 -60 67 -186 283 -255 440 -27 60 -56 106
-87 139 l-47 49 -158 -8 c-87 -4 -214 -10 -283 -14 -69 -3 -175 -2 -236 3
-106 8 -114 8 -147 -13 -20 -12 -39 -31 -42 -41 -7 -23 28 -86 97 -177 26 -34
71 -105 99 -159 29 -53 67 -116 86 -140 72 -95 149 -223 240 -401 52 -102 116
-213 142 -247 78 -101 170 -253 180 -298 6 -24 17 -72 25 -108 9 -41 17 -151
21 -295 3 -126 10 -261 15 -300 5 -38 12 -153 15 -255 6 -158 10 -190 26 -217
11 -17 26 -34 35 -37 31 -12 214 -6 290 10 47 10 96 14 123 10 30 -4 82 1 146
14 55 11 117 22 138 25 21 4 47 15 59 27 22 22 22 38 0 233 -11 91 -16 210
-28 615 -6 196 -5 233 10 284 10 32 25 70 35 85 47 68 122 215 143 281 25 78
53 105 83 80 12 -10 15 -38 15 -141 0 -111 4 -145 29 -242 72 -274 186 -452
364 -571 144 -96 150 -97 412 -112 135 -8 188 1 363 60 228 77 341 183 407
381 35 106 55 118 68 40 5 -27 18 -79 29 -115 11 -36 42 -137 68 -226 55 -183
65 -206 114 -253 l36 -35 108 18 c59 10 152 24 207 31 55 8 161 23 235 34 74
12 173 26 220 32 47 6 106 14 131 18 56 9 81 1 131 -44 46 -42 84 -45 180 -15
34 11 91 20 125 20 82 0 109 23 123 100 6 30 8 65 6 77 -3 13 -8 89 -11 170
-4 82 -13 182 -20 223 -7 41 -16 120 -20 175 -3 55 -13 121 -22 146 -29 83 4
123 76 93 51 -21 62 -61 76 -264 3 -36 9 -87 15 -115 5 -27 14 -90 20 -140 22
-199 54 -331 90 -378 10 -13 37 -32 59 -42 40 -17 45 -17 129 -1 48 10 119 20
157 22 101 7 108 10 128 44 l19 31 -31 34 c-62 71 -78 129 -101 370 -5 55 -14
132 -20 170 -6 39 -14 108 -20 155 -15 137 -41 192 -132 282 -43 43 -78 82
-78 87 0 5 21 35 46 67 123 159 167 320 129 482 -25 103 -113 243 -185 294
-108 77 -137 83 -385 82 -159 0 -245 -5 -310 -17 -49 -9 -119 -19 -155 -22
-86 -8 -139 -31 -147 -63 -3 -14 -1 -53 5 -86 11 -60 20 -123 27 -201 2 -22 8
-60 14 -85 5 -25 12 -99 15 -165 4 -66 12 -191 18 -278 9 -120 9 -160 0 -169
-20 -20 -32 3 -52 103 -11 52 -29 135 -40 184 -30 134 -70 334 -70 354 0 10
-9 26 -19 35 -17 15 -39 17 -176 15 -86 -1 -179 -6 -208 -11 -100 -15 -133
-18 -292 -22 -183 -5 -386 -22 -429 -36 -52 -18 -75 -11 -138 41 -77 63 -141
94 -237 114 -40 8 -78 18 -84 22 -11 6 -209 6 -287 -1 -98 -9 -258 -36 -299
-51 -24 -8 -62 -16 -85 -17 -39 -3 -41 -2 -38 23 1 15 25 64 52 110 28 46 55
99 61 118 6 18 22 50 36 69 28 42 27 82 -2 91 -11 4 -40 4 -65 0z m2930 -331
c10 -17 24 -63 29 -102 6 -39 18 -109 26 -156 18 -97 22 -203 11 -240 -14 -43
-56 -80 -92 -80 -18 0 -35 3 -37 8 -7 9 -34 209 -42 297 -3 39 -10 99 -16 135
-23 148 -24 134 13 152 54 27 85 23 108 -14z m-2397 -448 c48 -38 66 -95 77
-241 6 -74 15 -177 20 -229 6 -52 13 -145 17 -205 5 -99 4 -114 -15 -150 -44
-87 -116 -122 -194 -96 -90 30 -100 84 -102 526 -1 355 2 376 58 401 47 20
109 17 139 -6z"/>
<path d="M16255 2677 c27 -42 66 -151 70 -197 12 -121 24 -190 39 -212 9 -14
28 -61 42 -104 27 -81 39 -104 57 -104 7 0 7 32 2 98 -4 53 -9 122 -11 153 -3
47 -12 71 -54 140 -27 46 -50 88 -50 93 0 6 -10 26 -23 45 -13 20 -35 53 -48
73 -13 21 -27 38 -32 38 -4 0 -1 -11 8 -23z"/>
</g>
</svg>
